<?xml version="1.0" standalone="no"?>
<!DOCTYPE svg PUBLIC "-//W3C//DTD SVG 20010904//EN"
 "http://www.w3.org/TR/2001/REC-SVG-20010904/DTD/svg10.dtd">
<svg version="1.0" xmlns="http://www.w3.org/2000/svg"
 width="500.000000pt" height="500.000000pt" viewBox="0 0 500.000000 500.000000"
 preserveAspectRatio="xMidYMid meet">
<metadata>
Created by potrace 1.14, written by Peter Selinger 2001-2017
</metadata>
<g transform="translate(0.000000,500.000000) scale(0.100000,-0.100000)"
fill="#000000" stroke="none">
<path d="M1420 4000 c-107 -90 -191 -222 -230 -362 -25 -89 -27 -277 -5 -383
23 -110 85 -227 155 -295 75 -74 193 -134 310 -158 47 -9 90 -23 95 -30 16
-20 99 -12 103 10 2 12 -5 17 -25 20 -41 5 -30 23 17 26 37 3 40 5 34 25 -3
12 -10 26 -13 30 -12 13 -63 -12 -68 -33 -3 -11 -9 -17 -14 -15 -4 3 -13 -3
-19 -12 -9 -14 -10 -2 -6 51 3 43 12 76 22 87 9 10 13 26 10 37 -4 10 1 35 9
55 13 31 20 37 45 37 17 0 30 -4 30 -10 0 -5 -9 -10 -20 -10 -21 0 -27 -15
-10 -25 6 -4 28 8 49 25 22 17 53 35 70 41 17 6 31 15 31 20 0 5 7 9 16 9 12
0 15 6 11 21 -4 13 0 22 11 25 9 3 25 10 35 15 13 7 23 6 33 -2 16 -13 19 2 4
17 -14 14 9 60 38 75 12 7 25 22 28 34 4 15 12 20 32 19 15 -1 28 -3 29 -3 1
-1 -2 -12 -7 -26 -11 -30 -13 -29 36 -9 23 10 51 14 73 10 26 -4 41 -1 56 13
17 15 42 19 155 23 74 3 146 2 159 -1 27 -7 41 -31 18 -31 -22 0 -18 -48 5
-65 20 -14 20 -14 -1 -43 -16 -23 -21 -45 -21 -99 l-1 -68 -18 34 c-13 24 -16
47 -13 83 l5 50 -29 -4 c-23 -2 -29 -8 -27 -25 2 -18 -3 -22 -29 -25 -26 -2
-37 -11 -55 -43 -13 -22 -23 -43 -23 -47 0 -4 15 -11 33 -16 31 -8 32 -10 35
-66 3 -52 0 -62 -24 -87 -25 -26 -26 -30 -14 -59 7 -17 10 -33 6 -37 -3 -3
-11 8 -17 25 -8 23 -17 32 -33 32 -29 0 -39 -10 -25 -26 6 -8 11 -37 11 -66 0
-44 -4 -56 -26 -75 -15 -13 -40 -23 -57 -23 -35 0 -37 -9 -4 -40 19 -18 22
-27 14 -42 -10 -18 -12 -18 -35 -3 -23 15 -24 15 -24 -8 0 -14 10 -37 22 -53
l22 -29 -26 23 c-14 13 -28 36 -31 52 -6 30 -62 100 -79 100 -20 0 -67 -41
-70 -62 -5 -36 -22 -30 -47 18 -27 51 -64 84 -93 84 -10 0 -37 9 -59 20 -22
12 -44 18 -49 15 -16 -10 23 -55 42 -49 27 8 32 -16 7 -42 -33 -35 -52 -30
-95 26 -42 56 -75 70 -50 23 28 -55 88 -115 108 -110 15 4 18 1 12 -16 -3 -12
-17 -34 -30 -48 -21 -22 -23 -29 -14 -55 8 -23 7 -37 -4 -59 -8 -16 -13 -32
-10 -37 3 -4 -4 -8 -15 -8 -15 0 -30 17 -55 68 l-35 67 -1 -578 c0 -381 4
-585 10 -598 14 -26 66 -26 80 0 6 12 10 132 10 319 0 250 2 302 15 312 21 18
50 4 66 -33 12 -27 19 -32 47 -32 l32 0 0 -87 c0 -127 23 -168 76 -133 23 15
24 20 26 181 3 146 5 168 21 178 26 16 51 -4 55 -45 9 -88 89 -94 101 -8 7 48
31 70 59 53 14 -9 18 -31 22 -118 4 -80 9 -109 20 -116 21 -13 44 -12 58 2 9
9 12 -41 12 -228 0 -253 2 -264 46 -264 51 0 54 21 54 341 0 247 2 299 15 309
21 18 50 4 66 -33 12 -27 19 -32 47 -32 l32 0 0 -97 c0 -85 3 -101 20 -118 24
-24 32 -25 59 -2 19 16 21 28 23 181 3 143 5 165 21 175 27 17 51 -5 58 -53 6
-43 20 -61 51 -61 22 0 48 38 48 70 0 30 17 50 42 50 28 0 38 -33 38 -132 0
-99 7 -118 45 -118 44 0 45 5 45 395 0 207 5 389 10 413 13 55 -8 87 -61 96
-31 5 -42 15 -69 57 -18 28 -36 46 -40 40 -3 -6 -16 9 -28 34 -24 49 -30 131
-10 137 17 6 3 45 -48 131 -28 47 -52 77 -62 77 -10 0 -42 -7 -72 -15 -30 -8
-57 -15 -59 -15 -3 0 5 10 17 23 20 21 21 25 6 45 -14 21 -14 23 10 32 28 10
35 30 11 30 -8 0 -15 5 -15 11 0 6 9 8 21 4 18 -6 20 -4 14 14 -5 16 -1 22 20
27 20 5 34 -2 71 -32 25 -22 65 -50 88 -64 96 -55 155 -112 177 -169 27 -72
49 -167 49 -213 0 -34 -2 -37 -32 -40 -27 -2 -37 -10 -51 -41 -23 -46 -10 -72
32 -62 14 4 23 3 19 0 -7 -7 14 -35 26 -35 3 0 6 25 8 56 l3 57 90 18 c189 38
337 144 410 292 57 118 70 182 70 352 -1 138 -3 157 -29 230 -32 95 -62 149
-127 231 -42 53 -144 144 -162 144 -3 0 0 -18 8 -41 29 -82 40 -201 28 -316
-26 -249 -115 -390 -277 -438 -54 -16 -166 -20 -166 -6 0 19 -111 122 -176
163 -38 25 -112 62 -164 84 l-95 39 -165 0 -165 0 -95 -39 c-146 -60 -259
-139 -328 -230 -22 -29 -23 -29 -103 -23 -170 11 -275 108 -331 302 -30 106
-33 335 -5 434 10 35 16 65 14 68 -3 2 -33 -19 -67 -47z m1726 -827 c-9 -10
-35 6 -47 28 l-11 22 31 -23 c18 -12 30 -24 27 -27z m-509 -315 c-3 -8 -6 -5
-6 6 -1 11 2 17 5 13 3 -3 4 -12 1 -19z m3 -27 c0 -12 -59 -55 -66 -48 -8 8
19 46 36 51 26 7 30 6 30 -3z m-165 -360 c-15 -15 -18 -14 -31 4 -13 18 -12
21 8 37 22 16 23 16 31 -4 5 -15 3 -27 -8 -37z m-85 -14 c0 -6 -9 -2 -20 8
-11 10 -20 23 -20 28 0 6 9 2 20 -8 11 -10 20 -23 20 -28z m240 12 c0 -6 11
-8 28 -4 21 4 33 0 50 -17 l21 -24 -25 1 c-13 1 -30 7 -36 13 -7 7 -20 12 -29
12 -9 0 -19 7 -23 15 -3 8 -1 15 4 15 6 0 10 -5 10 -11z m-634 -76 c-7 -17 -8
-17 -17 0 -12 21 -2 44 13 29 6 -6 8 -19 4 -29z m634 -27 c0 -24 29 -27 42 -3
11 21 12 20 34 -27 25 -54 21 -80 -24 -149 -31 -46 -68 -49 -65 -5 1 18 -3 25
-11 22 -7 -3 -18 2 -25 10 -11 13 -17 13 -46 0 -19 -8 -44 -14 -55 -14 -18 0
-20 6 -20 55 0 33 4 55 11 55 6 0 25 10 41 22 27 19 91 46 111 48 4 0 7 -6 7
-14z"/>
<path d="M2984 1846 c-11 -28 1 -51 25 -51 32 0 49 28 32 49 -17 20 -50 21
-57 2z"/>
<path d="M2310 1815 c-20 -25 -8 -50 25 -50 21 0 31 5 33 18 4 21 -14 47 -33
47 -7 0 -18 -7 -25 -15z"/>
<path d="M2394 1685 c-14 -37 26 -69 53 -42 22 22 8 57 -23 57 -14 0 -27 -7
-30 -15z"/>
<path d="M2174 1656 c-11 -28 1 -51 25 -51 32 0 49 28 32 49 -17 20 -50 21
-57 2z"/>
<path d="M3180 1555 c-6 -8 -9 -23 -5 -35 10 -31 59 -24 63 9 6 37 -34 55 -58
26z"/>
<path d="M2097 1339 c-21 -12 -22 -42 -3 -58 20 -16 56 3 56 29 0 25 -30 41
-53 29z"/>
<path d="M2531 1186 c-19 -23 -4 -56 25 -56 28 0 42 25 27 49 -14 22 -37 25
-52 7z"/>
<path d="M1817 1146 c-13 -33 16 -62 49 -49 9 3 14 15 12 32 -2 20 -9 27 -29
29 -17 2 -29 -3 -32 -12z"/>
<path d="M2529 1004 c-17 -21 0 -49 32 -49 18 0 25 6 27 24 6 38 -34 55 -59
25z"/>
</g>
</svg>
